<svg xmlns="http://www.w3.org/2000/svg" width="136" height="36" viewBox="0 0 136 36">
  <g fill="none" fill-rule="evenodd">
    <path fill="#0A0B09" d="M93.2998238 33.4468076L93.2998238 29.4829544 100.143093 29.4829544C100.695036 29.4829544 101.14245 29.0350244 101.14245 28.4827501 101.14245 27.9302031 100.694899 27.4822731 100.14282 27.4822731L93.2998238 27.4822731 93.2998238 24.0370038 103.583262 24.0370038C104.135205 24.0370038 104.582619 23.5892102 104.582619 23.0367996 104.582619 22.4842525 104.135205 22.0363225 103.58299 22.0363225L92.2301456 22.0363225C91.595071 22.0363225 91.0803335 22.5514966 91.0803335 23.1871098L91.0803335 34.2964289C91.0803335 34.9320421 91.595071 35.4472162 92.2301456 35.4472162L104.101407 35.4472162C104.653349 35.4472162 105.100763 34.9994225 105.100763 34.4470119L105.100763 34.4441476C105.100763 33.8933737 104.654439 33.4468076 104.104132 33.4468076L93.2998238 33.4468076M75.762362 33.4468076L67.2910667 33.4468076 67.2910667 29.6493596 76.1139698 29.6493596C77.7291852 29.6493596 78.5369292 30.3040685 78.5369292 31.6136227 78.5369292 32.8358824 77.6121189 33.4468076 75.762362 33.4468076zM67.2910667 24.0370038L76.0214342 24.0370038C76.6623689 24.0370038 77.1683844 24.1982259 77.538254 24.5210792 77.9079873 24.8439326 78.0931947 25.2780864 78.0931947 25.8242228 78.0931947 26.3332589 77.8863185 26.7646848 77.4733837 27.1185004 77.0600401 27.4721796 76.5453026 27.6489511 75.9288987 27.6489511L67.2910667 27.6489511 67.2910667 24.0370038zM78.5183948 28.5381276C79.6773378 27.8712793 80.2572181 26.9264525 80.2572181 25.70392 80.2572181 24.592688 79.8686779 23.7033751 79.0918699 23.0365268 78.3150619 22.3696785 77.248382 22.0363225 75.8919662 22.0363225L66.3669378 22.0363225C65.6514568 22.0363225 65.0714402 22.6168311 65.0714402 23.332919L65.0714402 34.1506197C65.0714402 34.8667076 65.6514568 35.4472162 66.3669378 35.4472162L75.7439639 35.4472162C79.1223971 35.4472162 80.8120225 34.274196 80.8120225 31.9277466 80.8120225 30.1866301 80.0472074 29.056848 78.5183948 28.5381276zM52.8128654 35.4391687C52.1777909 35.4391687 51.6630534 34.9238582 51.6630534 34.2883814L51.6630534 23.1969305C51.6630534 22.5613172 52.1777909 22.0461432 52.8128654 22.0461432 53.4443967 22.0461432 53.9562722 22.5584529 53.9562722 23.1905198L53.9562722 34.2947921C53.9562722 34.926859 53.4443967 35.4391687 52.8128654 35.4391687M9.42555149 24.1163873L9.42555149 34.3145697C9.42555149 34.9414535 8.90590785 35.4462614 8.27941905 35.4462614 7.64652498 35.4462614 7.13342288 34.948137 7.13342288 34.3145697L7.13342288 24.1163873 1.55621429 24.1163873C.986146272 24.1163873.524013677 23.6538627.524013677 23.0833112.524013677 22.5127597.986146272 22.0500987 1.55621429 22.0500987L15.0027601 22.0502351C15.5728281 22.0502351 16.0349607 22.5127597 16.0349607 23.0833112 16.0349607 23.6538627 15.5728281 24.1163873 15.0027601 24.1163873L9.42555149 24.1163873M27.8228171 28.3432153L27.8258153 24.1230708 35.5558722 24.1230708C37.4054928 24.1230708 38.3260784 24.7870547 38.3260784 26.2690156 38.3260784 27.6519518 37.4690003 28.3432153 35.7552529 28.3432153L27.8228171 28.3432153zM37.123934 30.2324597C38.184345 30.0596438 39.0166198 29.6522239 39.6210309 29.0100636 40.2743673 28.3183909 40.6011717 27.4047992 40.6011717 26.26847 40.6011717 24.9718736 40.2003661 23.9438442 39.3990273 23.1843819 38.5971435 22.4249195 37.4938036 22.0451884 36.0881901 22.0451884L26.8229153 22.0451884C26.1070255 22.0451884 25.5267363 22.6259697 25.5267363 23.3424668L25.5267363 34.2883814C25.5267363 34.9238582 26.0414738 35.4391687 26.6765483 35.4391687 27.3112141 35.4391687 27.8258153 34.924131 27.8258153 34.2887906L27.8258153 30.3436238 34.5059549 30.3436238 37.7711377 34.9496374C37.996412 35.2673076 38.3613755 35.456082 38.7505971 35.456082 39.5815091 35.456082 40.0715795 34.523531 39.6009974 33.838269L37.123934 30.2324597z"/>
    <path fill="#F848C4" d="M114.557651,15.0410306 C110.591569,15.0410306 107.376811,11.840868 107.376811,7.89392808 C107.376811,3.94644255 110.591569,0.746825547 114.557651,0.746825547 C118.523869,0.746825547 121.739172,3.94644255 121.739172,7.89392808 C121.739172,11.840868 118.523869,15.0410306 114.557651,15.0410306"/>
    <path fill="#00E2FF" d="M130.000593,19.5113285 C127.18773,19.5113285 124.906368,17.2411254 124.906368,14.4411536 C124.906368,11.6407726 127.18773,9.37097866 130.000593,9.37097866 C132.813455,9.37097866 135.094818,11.6407726 135.094818,14.4411536 C135.094818,17.2411254 132.813455,19.5113285 130.000593,19.5113285"/>
    <path fill="#09E67F" d="M120.283679,20.8612564 C122.111222,20.8612564 123.592609,22.3355791 123.592609,24.1538967 C123.592609,25.9727598 122.111222,27.4472189 120.283679,27.4472189 C118.455864,27.4472189 116.974477,25.9727598 116.974477,24.1538967 C116.974477,22.3354427 118.455864,20.8612564 120.283679,20.8612564"/>
  </g>
</svg>
